<svg height="512pt" viewBox="-83 0 512 512" width="512pt" xmlns="http://www.w3.org/2000/svg"><path d="m175.253906 2.667969c-95.777344 0-170.332031 74.976562-170.332031 170.753906 0 131.613281 123.164063 286.472656 162.5 332.972656l19.089844-1.21875c40.382812-47.929687 160.332031-201.265625 160.332031-331.753906 0-75.183594-47.839844-139.191406-114.738281-163.242187-18.328125-6.589844-36.253907-7.511719-56.851563-7.511719zm0 0" fill="#eceaec"/><path d="m264.261719 272.519531h-181.679688v-83.765625l47.839844-26.503906h80.75l53.089844 26.503906zm0 0" fill="#f6d190"/><path d="m264.261719 148.644531h-181.679688v40.109375c.945313.246094 1.855469.582032 2.828125.742188 1.800782.289062 3.625.441406 5.429688.441406 5.898437 0 11.570312-1.566406 16.515625-4.417969 4.941406 2.855469 10.617187 4.417969 16.515625 4.417969 5.902344 0 11.574218-1.5625 16.515625-4.417969 4.945312 2.855469 10.617187 4.417969 16.515625 4.417969 5.902344 0 11.574218-1.5625 16.519531-4.417969 4.941406 2.855469 10.613281 4.417969 16.515625 4.417969 5.898438 0 11.574219-1.5625 16.515625-4.417969 4.941406 2.855469 10.613281 4.417969 16.515625 4.417969 5.898438 0 11.574219-1.5625 16.515625-4.417969 4.945313 2.851563 10.617187 4.417969 16.515625 4.417969 1.804688 0 3.632812-.152344 5.429688-.441406.972656-.160156 1.886718-.496094 2.828124-.742188v-40.109375zm0 0" fill="#ecbd83"/><path d="m222.96875 239.484375h-99.097656c-4.558594 0-8.257813-3.695313-8.257813-8.257813v-42.335937l14.308594-31.984375h90.832031l10.472656 31.988281v42.332031c0 4.5625-3.695312 8.257813-8.257812 8.257813zm0 0" fill="#dbeaff"/><path d="m272.519531 280.777344h-198.195312c-4.5625 0-8.257813-3.699219-8.257813-8.257813 0-4.5625 3.695313-8.257812 8.257813-8.257812h198.195312c4.558594 0 8.257813 3.695312 8.257813 8.257812 0 4.558594-3.699219 8.257813-8.257813 8.257813zm0 0" fill="#c8c5c9"/><path d="m271.511719 132.128906c-.589844-2.050781-1.414063-4.035156-2.523438-5.882812l-16.433593-27.386719c-2.984376-4.976563-8.359376-8.019531-14.160157-8.019531h-129.945312c-5.800781 0-11.179688 3.042968-14.164063 8.019531l-16.429687 27.386719c-1.109375 1.847656-1.933594 3.832031-2.527344 5.882812l98.09375 16.515625zm0 0" fill="#ff8086"/><path d="m115.613281 188.890625c2.667969.6875 5.433594 1.046875 8.257813 1.046875 5.902344 0 11.574218-1.5625 16.515625-4.414062 4.945312 2.851562 10.617187 4.414062 16.515625 4.414062 5.902344 0 11.574218-1.5625 16.519531-4.414062 4.941406 2.851562 10.613281 4.414062 16.515625 4.414062 5.898438 0 11.574219-1.5625 16.515625-4.414062 4.941406 2.851562 10.613281 4.414062 16.515625 4.414062 2.824219 0 5.589844-.359375 8.257812-1.042969v-31.992187h-115.613281zm0 0" fill="#c3ddff"/><path d="m74.324219 138.992188v17.027343c0 8.226563 5.621093 15.851563 13.742187 17.175781 6.859375 1.113282 13.101563-2 16.53125-7.148437 1.347656-2.027344 4.160156-2.042969 5.507813-.015625 2.957031 4.453125 8.019531 7.390625 13.765625 7.390625 5.75 0 10.8125-2.9375 13.769531-7.394531 1.34375-2.023438 4.152344-2.023438 5.496094 0 2.957031 4.457031 8.019531 7.394531 13.769531 7.394531 5.746094 0 10.8125-2.9375 13.769531-7.394531 1.34375-2.023438 4.148438-2.023438 5.492188 0 2.957031 4.457031 8.019531 7.394531 13.769531 7.394531s10.8125-2.9375 13.769531-7.394531c1.34375-2.023438 4.152344-2.023438 5.492188 0 2.960937 4.457031 8.023437 7.394531 13.773437 7.394531 5.746094 0 10.804688-2.9375 13.765625-7.390625 1.347657-2.027344 4.15625-2.011719 5.507813.015625 3.429687 5.148437 9.671875 8.261719 16.53125 7.148437 8.121094-1.324218 13.742187-8.949218 13.742187-17.175781v-17.027343c0-2.335938-.363281-4.636719-1.003906-6.863282h-196.1875c-.640625 2.226563-1.003906 4.527344-1.003906 6.863282zm0 0" fill="#e5646e"/><path d="m33.03125 181.679688c0-95.777344 77.644531-173.421876 173.421875-173.421876 8.679687 0 17.382813.714844 25.71875 1.945313-18.304687-6.570313-38.1875-10.203125-58.75-10.203125-95.777344 0-173.421875 77.644531-173.421875 173.421875 0 131.613281 122.023438 286.472656 161.355469 332.972656 3.164062 3.738281 7.613281 5.605469 12.066406 5.605469 4.449219 0 8.902344-1.867188 12.0625-5.605469.320313-.378906.699219-.828125 1.027344-1.214843-45.574219-55.4375-153.480469-199.730469-153.480469-323.5zm0 0" fill="#dad8db"/></svg>