<?xml version="1.0" encoding="UTF-8"?>
<svg xmlns="http://www.w3.org/2000/svg" xmlns:xlink="http://www.w3.org/1999/xlink" width="375pt" height="374.999991pt" viewBox="0 0 375 374.999991" version="1.2">
<defs>
<clipPath id="clip1">
  <path d="M 220 37.5 L 316 37.5 L 316 143 L 220 143 Z M 220 37.5 "/>
</clipPath>
<clipPath id="clip2">
  <path d="M 37.5 211 L 337.5 211 L 337.5 333.414062 L 37.5 333.414062 Z M 37.5 211 "/>
</clipPath>
</defs>
<g id="surface1">
<rect x="0" y="0" width="375" height="374.999991" style="fill:rgb(100%,100%,100%);fill-opacity:1;stroke:none;"/>
<rect x="0" y="0" width="375" height="374.999991" style="fill:rgb(100%,100%,100%);fill-opacity:1;stroke:none;"/>
<rect x="0" y="0" width="375" height="374.999991" style="fill:rgb(100%,100%,100%);fill-opacity:1;stroke:none;"/>
<path style=" stroke:none;fill-rule:evenodd;fill:rgb(98.81897%,90.979004%,73.728943%);fill-opacity:1;" d="M 180.453125 68.960938 C 184.128906 68.976562 187.796875 68.472656 191.433594 67.972656 C 193.007812 67.75 194.664062 66.84375 196.226562 67.566406 C 198.289062 68.53125 196.976562 70.855469 196.964844 72.433594 C 196.964844 73.171875 197.367188 73.757812 197.8125 74.3125 C 199.027344 75.820312 200.867188 76.726562 202.675781 77.308594 C 203.429688 77.546875 205.003906 77.714844 205.546875 78.371094 C 206.46875 79.457031 206.050781 81.601562 205.671875 82.789062 C 205.410156 83.609375 205.144531 84.433594 204.726562 85.199219 C 204.097656 86.339844 203.109375 87.136719 202.148438 87.988281 C 201.144531 88.878906 200 90.761719 198.707031 91.21875 C 197.714844 91.570312 196.546875 90.578125 195.890625 89.992188 C 194.039062 88.320312 193.175781 86.285156 190.582031 85.589844 C 189.089844 85.199219 187.671875 86.0625 186.414062 86.71875 C 184.855469 87.527344 182.738281 88.25 180.980469 87.734375 C 178.375 86.984375 178.277344 82.871094 178.152344 80.710938 C 178.109375 79.984375 177.972656 79.34375 177.332031 78.925781 C 176.855469 78.621094 175.921875 78.382812 175.785156 77.742188 C 175.421875 75.957031 178.515625 74.328125 179.113281 72.753906 C 179.460938 71.859375 179.210938 70.132812 179.6875 69.40625 "/>
<path style=" stroke:none;fill-rule:evenodd;fill:rgb(98.81897%,90.979004%,73.728943%);fill-opacity:1;" d="M 185.386719 115.402344 L 185.398438 115.402344 C 185.398438 115.386719 185.414062 115.375 185.425781 115.359375 C 185.414062 115.375 185.386719 115.429688 185.386719 115.402344 Z M 185.425781 115.359375 C 185.453125 115.289062 185.523438 115.234375 185.550781 115.164062 C 185.578125 115.09375 185.46875 115.304688 185.425781 115.359375 Z M 193.535156 122.609375 C 192.617188 121.589844 191.542969 120.753906 190.457031 119.929688 C 189.46875 119.066406 188.421875 118.257812 187.378906 117.464844 C 186.902344 117.046875 186.414062 116.613281 185.996094 116.113281 L 185.398438 115.402344 C 185.34375 115.484375 185.273438 115.570312 185.21875 115.652344 C 184.839844 115.304688 184.464844 114.984375 184.128906 114.59375 L 183.53125 113.882812 C 183.070312 114.675781 182.070312 115.429688 181.496094 116.042969 C 179.433594 118.316406 177.359375 120.574219 175.28125 122.832031 C 168.496094 130.203125 162.042969 137.785156 155.773438 145.605469 C 154.492188 147.222656 153.15625 148.796875 151.832031 150.386719 L 151.789062 150.050781 C 152.011719 150.398438 149.449219 151.542969 149.308594 151.613281 C 146.632812 152.769531 143.679688 153.117188 140.976562 154.191406 C 136.601562 155.933594 134.691406 160.003906 133.605469 164.28125 C 133.230469 165.757812 132.460938 167.917969 133.464844 169.3125 C 134.46875 170.707031 135.972656 170.09375 136.921875 168.992188 C 139.136719 166.414062 140.265625 163.164062 144.167969 163.027344 C 146.355469 162.941406 148.082031 164.113281 148.5 166.300781 C 148.597656 166.816406 148.347656 168.949219 148.933594 169.1875 C 150.230469 169.714844 152.082031 167.625 152.667969 166.746094 C 153.933594 164.824219 154.03125 163 153.753906 161.160156 C 159.410156 160.140625 168.859375 154.496094 177.59375 141.8125 C 182.945312 134.050781 183.421875 138.316406 189.773438 131.429688 C 191.238281 129.839844 192.660156 128.222656 194.09375 126.609375 C 194.246094 126.441406 195.5 125.296875 195.445312 125.03125 C 195.25 124.183594 194.078125 123.207031 193.535156 122.609375 Z M 183.53125 113.882812 C 183.546875 113.867188 183.558594 113.855469 183.574219 113.839844 C 183.558594 113.855469 183.53125 113.894531 183.53125 113.882812 Z M 183.683594 113.644531 C 183.65625 113.714844 183.601562 113.769531 183.574219 113.839844 C 183.613281 113.800781 183.726562 113.574219 183.683594 113.644531 "/>
<path style=" stroke:none;fill-rule:evenodd;fill:rgb(23.139954%,26.269531%,37.249756%);fill-opacity:1;" d="M 183.195312 111.207031 C 184.578125 107.890625 191.90625 94.496094 194.972656 87.148438 C 196.53125 83.429688 204.140625 78.160156 205.476562 77.910156 C 208.683594 77.296875 214.605469 79.582031 217.167969 81.128906 C 219.800781 82.71875 222.324219 84.433594 224.34375 86.789062 C 230.128906 93.519531 241.566406 103.707031 239.269531 119.652344 C 237.820312 129.703125 262.164062 146.675781 255.53125 161.828125 C 253.886719 165.578125 221.765625 175.097656 219.46875 172.921875 C 216 169.675781 214.492188 155.292969 211.929688 154.191406 C 209.269531 153.0625 207.972656 141.9375 206.96875 138.84375 C 204.417969 130.929688 200.488281 122.984375 199.402344 121.410156 C 198.273438 122.550781 195.207031 125.6875 195.207031 125.6875 C 195.207031 125.6875 195.082031 124.027344 194.261719 123.792969 C 193.773438 123.640625 193.035156 124.40625 192.8125 124.515625 C 192.6875 124.585938 191.753906 123.902344 191.628906 123.820312 C 189.71875 122.761719 189.0625 121.910156 187.601562 120.058594 C 187.140625 119.484375 186.695312 118.898438 186.234375 118.328125 C 185.648438 117.574219 185.050781 116.835938 184.453125 116.085938 C 183.992188 115.5 183.53125 114.914062 183.058594 114.316406 C 182.835938 114.035156 182.5 113.15625 182.375 113.226562 L 182.332031 113.3125 C 182.347656 113.269531 182.359375 113.242188 182.375 113.226562 L 183.195312 111.207031 "/>
<g clip-path="url(#clip1)" clip-rule="nonzero">
<path style=" stroke:none;fill-rule:evenodd;fill:rgb(49.409485%,85.099792%,34.118652%);fill-opacity:1;" d="M 253.605469 142.816406 L 220.25 80.851562 L 230.101562 62.535156 L 284.457031 37.921875 L 315.628906 104.238281 L 299.953125 124.78125 L 253.605469 142.816406 "/>
</g>
<path style=" stroke:none;fill-rule:evenodd;fill:rgb(98.81897%,90.979004%,73.728943%);fill-opacity:1;" d="M 194.164062 270.847656 C 192.601562 271.699219 186.429688 270.863281 186.542969 269.789062 C 186.75 267.867188 187.113281 262.414062 187.253906 260.492188 C 187.753906 253.828125 188.28125 247.167969 188.796875 240.503906 C 189.007812 237.859375 189.984375 224.378906 190.734375 221.828125 C 193.496094 212.5625 204.417969 233.578125 204.417969 233.578125 C 204.417969 233.578125 196.003906 269.832031 194.164062 270.847656 "/>
<path style=" stroke:none;fill-rule:evenodd;fill:rgb(32.939148%,32.939148%,32.939148%);fill-opacity:1;" d="M 185.789062 267.699219 C 187.390625 267.960938 192.714844 268.617188 194.289062 269.0625 C 196.308594 269.636719 196.671875 279.351562 195.945312 281.832031 C 195.472656 283.460938 194.804688 286.875 193.3125 287.949219 C 192.421875 288.605469 189.800781 288.003906 188.757812 288.144531 C 185.09375 288.589844 181.441406 289.484375 177.859375 290.347656 C 173.777344 291.351562 167.035156 293.859375 163.242188 290.667969 C 161.292969 289.023438 162.558594 286.332031 164.136719 284.964844 C 166.265625 283.140625 174.210938 280.730469 179.113281 276.855469 C 183.964844 273.007812 185.789062 267.699219 185.789062 267.699219 "/>
<path style=" stroke:none;fill-rule:evenodd;fill:rgb(32.939148%,32.939148%,32.939148%);fill-opacity:1;" d="M 204.863281 68.042969 C 204.515625 70.675781 197.730469 66.84375 194.371094 67.023438 C 192.921875 67.109375 190.875 67.539062 189.023438 68 C 189.035156 70.453125 189.0625 72.890625 189.105469 75.34375 C 189.132812 78.019531 189.203125 80.710938 189.257812 83.386719 C 189.257812 84.042969 189.566406 85.714844 189.007812 86.257812 C 188.742188 86.535156 188.242188 86.605469 187.894531 86.71875 C 187.710938 86.773438 187.363281 86.996094 187.167969 86.996094 C 187.167969 86.996094 187.183594 86.050781 187.183594 86.019531 C 187.222656 84.738281 187.308594 83.46875 187.378906 82.1875 C 187.574219 78.144531 187.433594 74.089844 186.765625 70.089844 C 186.679688 69.617188 186.570312 69.144531 186.472656 68.667969 C 185.480469 68.949219 184.785156 69.15625 184.785156 69.15625 C 184.785156 69.15625 172.441406 71.050781 171.535156 68.738281 C 170.851562 66.96875 171.058594 62.660156 174.210938 58.691406 C 177.34375 54.703125 184.785156 50.328125 196.460938 51.261719 C 208.140625 52.195312 205.214844 65.421875 204.863281 68.042969 "/>
<path style=" stroke:none;fill-rule:nonzero;fill:rgb(23.139954%,26.269531%,37.249756%);fill-opacity:1;" d="M 193.007812 72.179688 C 192.980469 72.195312 192.992188 72.195312 193.007812 72.179688 L 193.019531 72.167969 Z M 193.035156 72.152344 C 193.089844 72.113281 193.078125 72.125 193.035156 72.140625 C 193.046875 72.140625 193.046875 72.140625 193.007812 72.167969 C 192.980469 72.179688 192.980469 72.179688 192.980469 72.179688 C 192.949219 72.195312 192.910156 72.222656 193.007812 72.167969 L 193.019531 72.167969 Z M 192.980469 72.238281 L 192.992188 72.222656 L 192.964844 72.238281 C 192.964844 72.238281 192.980469 72.238281 192.980469 72.238281 Z M 193.019531 72.167969 C 193.0625 72.140625 193.046875 72.140625 193.035156 72.152344 C 193.019531 72.167969 193.035156 72.167969 193.019531 72.167969 Z M 192.964844 72.179688 C 192.980469 72.167969 192.992188 72.152344 193.019531 72.152344 L 193.035156 72.140625 L 193.019531 72.140625 Z M 193.089844 72.082031 L 193.0625 72.097656 C 192.964844 72.125 193.0625 72.097656 193.089844 72.082031 Z M 193.089844 72.097656 C 193.089844 72.097656 193.078125 72.097656 193.046875 72.113281 L 193.019531 72.125 L 193.046875 72.113281 C 193.0625 72.097656 193.0625 72.097656 193.089844 72.097656 Z M 194.175781 70.675781 C 193.953125 70.886719 193.746094 71.09375 193.523438 71.304688 C 193.535156 71.316406 193.578125 71.34375 193.578125 71.359375 C 193.605469 71.402344 193.605469 71.441406 193.621094 71.46875 L 193.691406 71.761719 L 193.773438 71.707031 C 193.746094 71.722656 193.730469 71.734375 193.691406 71.761719 L 193.746094 71.917969 C 193.757812 72.027344 193.789062 72.125 193.800781 72.238281 C 193.816406 72.335938 193.816406 72.445312 193.828125 72.558594 C 193.84375 72.878906 193.828125 73.199219 193.828125 73.519531 C 193.84375 73.628906 193.757812 73.742188 193.648438 73.757812 C 193.523438 73.769531 193.425781 73.6875 193.410156 73.574219 C 193.355469 73.351562 193.285156 73.144531 193.242188 72.917969 C 193.203125 72.78125 193.175781 72.628906 193.144531 72.488281 C 193.132812 72.417969 193.117188 72.363281 193.117188 72.292969 C 193.117188 72.292969 193.117188 72.277344 193.105469 72.277344 L 193.105469 72.292969 C 192.992188 72.433594 193.230469 72.113281 193.089844 72.277344 C 193.007812 72.375 193.1875 72.152344 193.078125 72.265625 C 192.992188 72.363281 193.175781 72.152344 193.0625 72.25 C 193.007812 72.304688 193.117188 72.179688 193.046875 72.25 C 192.980469 72.320312 193.144531 72.152344 193.046875 72.238281 C 192.980469 72.292969 193.132812 72.152344 193.035156 72.222656 C 192.949219 72.292969 193.160156 72.125 193.019531 72.222656 C 192.921875 72.277344 193.105469 72.363281 193.007812 72.238281 L 192.992188 72.222656 C 192.980469 72.210938 192.964844 72.222656 192.980469 72.195312 C 192.992188 72.195312 193.007812 72.179688 193.007812 72.179688 C 193.0625 72.140625 193.175781 72.097656 193.035156 72.179688 C 192.921875 72.25 193.144531 72.113281 193.089844 72.152344 L 193.105469 72.140625 C 193.105469 72.125 193.105469 72.125 193.105469 72.125 L 193.089844 72.097656 L 193.019531 72.140625 C 192.992188 72.152344 192.9375 72.179688 192.992188 72.152344 C 193.089844 72.113281 192.910156 72.179688 192.992188 72.140625 C 193.046875 72.125 193.035156 72.113281 193.019531 72.125 C 192.980469 72.125 192.910156 72.152344 192.980469 72.125 C 193.117188 72.082031 192.867188 72.152344 192.980469 72.113281 C 193.160156 72.054688 192.824219 72.140625 192.980469 72.097656 C 193.035156 72.082031 192.921875 72.097656 192.980469 72.097656 L 193.0625 72.070312 L 193.0625 72.082031 C 192.992188 72.113281 193.0625 72.082031 193.089844 72.082031 L 193.089844 72.070312 L 193.0625 72.070312 C 193.0625 72.054688 193.089844 72.042969 193.089844 72.015625 C 193.089844 72.015625 193.089844 72.015625 193.089844 72 L 193.105469 71.695312 C 193.0625 71.734375 193.019531 71.777344 192.980469 71.820312 L 192.242188 72.53125 C 192.183594 72.585938 192.144531 72.765625 192.101562 72.835938 C 192.058594 72.90625 192.015625 72.949219 191.976562 72.960938 C 191.921875 72.976562 191.863281 73.003906 191.792969 72.960938 C 191.765625 72.949219 191.726562 72.933594 191.695312 72.878906 C 191.640625 72.792969 191.65625 72.667969 191.738281 72.613281 C 191.753906 72.597656 191.765625 72.597656 191.765625 72.585938 C 191.78125 72.53125 191.765625 72.460938 191.78125 72.402344 C 191.792969 72.335938 191.835938 72.265625 191.863281 72.222656 C 191.949219 72.070312 192.058594 71.917969 192.15625 71.777344 C 192.269531 71.636719 192.378906 71.5 192.492188 71.371094 C 192.589844 71.246094 192.699219 71.136719 192.8125 71.023438 C 192.980469 70.855469 193.160156 70.703125 193.339844 70.5625 C 193.800781 70.203125 194.300781 69.894531 194.816406 69.617188 C 194.914062 69.546875 195.042969 69.574219 195.109375 69.671875 C 195.167969 69.785156 195.140625 69.910156 195.042969 69.964844 C 194.75 70.1875 194.457031 70.425781 194.175781 70.675781 Z M 180.996094 81.40625 C 180.785156 81.519531 180.550781 81.601562 180.328125 81.699219 C 180.1875 81.757812 180.035156 81.824219 179.878906 81.882812 C 179.753906 81.921875 179.628906 81.953125 179.503906 81.992188 C 179.363281 82.019531 179.226562 82.050781 179.101562 82.0625 C 179.015625 82.0625 178.863281 82.105469 178.765625 82.132812 C 178.710938 82.105469 178.640625 82.105469 178.585938 82.148438 C 178.429688 82.203125 178.472656 82.328125 178.488281 82.382812 C 178.488281 82.4375 178.542969 82.480469 178.625 82.523438 C 178.695312 82.550781 178.976562 82.535156 179.101562 82.566406 C 179.253906 82.578125 179.421875 82.578125 179.574219 82.578125 C 179.742188 82.578125 179.910156 82.535156 180.0625 82.507812 C 180.242188 82.46875 180.425781 82.410156 180.589844 82.339844 C 180.757812 82.273438 180.925781 82.1875 181.078125 82.089844 C 181.539062 81.8125 181.972656 81.464844 182.347656 81.113281 C 182.445312 81.03125 182.457031 80.90625 182.390625 80.808594 C 182.320312 80.726562 182.179688 80.710938 182.097656 80.78125 C 181.746094 81.019531 181.386719 81.226562 180.996094 81.40625 Z M 178.863281 78.355469 C 178.90625 78.242188 178.835938 78.132812 178.722656 78.089844 C 178.683594 78.0625 178.585938 77.992188 178.445312 77.921875 C 178.417969 77.910156 178.375 77.894531 178.335938 77.882812 C 178.304688 77.867188 178.292969 77.867188 178.265625 77.867188 C 178.222656 77.867188 178.195312 77.882812 178.152344 77.882812 C 178.054688 77.910156 178.011719 77.9375 177.972656 77.953125 C 177.972656 77.953125 177.972656 77.953125 177.972656 77.964844 C 177.972656 77.964844 177.984375 77.980469 177.984375 77.980469 C 177.929688 77.9375 177.847656 77.953125 177.789062 77.992188 C 177.707031 78.050781 177.679688 78.175781 177.75 78.257812 C 177.75 78.273438 177.832031 78.339844 178.027344 78.480469 C 178.070312 78.507812 178.097656 78.523438 178.152344 78.535156 C 178.167969 78.550781 178.195312 78.550781 178.222656 78.566406 C 178.265625 78.566406 178.292969 78.550781 178.335938 78.550781 C 178.472656 78.535156 178.558594 78.496094 178.597656 78.496094 C 178.710938 78.523438 178.835938 78.46875 178.863281 78.355469 Z M 184.632812 72.125 C 184.4375 72.488281 184.199219 72.835938 183.90625 73.101562 C 183.742188 73.242188 183.558594 73.351562 183.351562 73.421875 C 183.226562 73.464844 183.085938 73.492188 182.945312 73.503906 C 182.808594 73.519531 182.695312 73.503906 182.582031 73.464844 C 182.457031 73.4375 182.347656 73.378906 182.234375 73.296875 C 182.136719 73.210938 182.039062 72.988281 181.957031 72.917969 C 181.859375 72.835938 181.777344 72.808594 181.707031 72.835938 C 181.648438 72.851562 181.59375 72.863281 181.554688 72.949219 C 181.484375 73.015625 181.511719 73.144531 181.59375 73.210938 C 181.621094 73.242188 181.648438 73.242188 181.691406 73.253906 C 181.691406 73.28125 181.707031 73.339844 181.71875 73.378906 C 181.761719 73.492188 181.816406 73.601562 181.875 73.660156 C 182.011719 73.824219 182.164062 73.953125 182.347656 74.035156 C 182.542969 74.132812 182.738281 74.175781 182.960938 74.175781 C 183.140625 74.175781 183.308594 74.144531 183.460938 74.105469 C 183.710938 74.035156 183.9375 73.910156 184.117188 73.742188 C 184.546875 73.378906 184.828125 72.851562 185.007812 72.304688 C 185.0625 72.195312 185.007812 72.070312 184.910156 72.027344 C 184.800781 71.972656 184.675781 72.027344 184.632812 72.125 Z M 181.71875 70.914062 C 181.707031 70.925781 181.691406 70.941406 181.707031 70.953125 C 181.707031 70.96875 181.707031 70.925781 181.707031 70.925781 C 181.707031 70.925781 181.707031 70.914062 181.71875 70.914062 Z M 181.582031 71.039062 C 181.648438 71.023438 181.691406 70.96875 181.71875 70.914062 C 181.71875 70.914062 181.71875 70.914062 181.71875 70.898438 C 181.71875 70.914062 181.71875 70.914062 181.71875 70.914062 C 181.71875 70.898438 181.734375 70.898438 181.734375 70.886719 C 181.804688 70.855469 181.929688 70.84375 181.941406 70.828125 L 182.582031 70.621094 C 182.722656 70.5625 182.90625 70.523438 183.097656 70.453125 C 183.335938 70.382812 183.601562 70.285156 183.867188 70.230469 C 184.160156 70.160156 184.453125 70.105469 184.675781 70.175781 C 184.785156 70.203125 184.910156 70.144531 184.9375 70.046875 C 184.980469 69.9375 184.925781 69.8125 184.8125 69.769531 C 184.535156 69.644531 184.171875 69.617188 183.769531 69.644531 C 183.476562 69.660156 183.167969 69.714844 182.890625 69.796875 C 182.679688 69.867188 182.5 69.949219 182.347656 70.007812 C 182.207031 70.089844 182.082031 70.144531 181.957031 70.230469 C 181.859375 70.285156 181.777344 70.339844 181.691406 70.398438 C 181.679688 70.425781 181.414062 70.648438 181.371094 70.71875 C 181.300781 70.871094 181.34375 70.96875 181.425781 71.011719 C 181.457031 71.023438 181.496094 71.050781 181.582031 71.039062 Z M 200.238281 76.320312 C 199.582031 77.4375 193.953125 75.46875 194.847656 74.800781 C 196.308594 73.726562 197.382812 70.984375 196.824219 69.144531 C 196.449219 67.957031 195.265625 67.246094 194.050781 67.316406 C 193.996094 67.332031 191.070312 67.75 190.625 72.097656 C 190.582031 72.597656 189.246094 71.722656 189.203125 71.722656 C 189.050781 71.664062 188.8125 71.148438 188.714844 71.039062 C 188.28125 70.46875 187.753906 69.949219 187.183594 69.492188 C 186.847656 69.226562 186.472656 68.976562 186.082031 68.78125 C 185.898438 68.695312 185.355469 68.542969 185.539062 68.558594 L 185.675781 68.167969 C 186.136719 67.511719 188.058594 67.457031 188.757812 67.261719 C 192.339844 66.300781 196.058594 66.855469 199.722656 66.535156 C 200.726562 66.453125 203.429688 66.0625 203.640625 67.597656 C 203.890625 69.378906 201.144531 71.859375 199.917969 73.964844 C 199.011719 75.511719 200.238281 76.320312 200.238281 76.320312 "/>
<path style=" stroke:none;fill-rule:evenodd;fill:rgb(23.139954%,26.269531%,37.249756%);fill-opacity:1;" d="M 175.15625 61.964844 C 175.144531 61.796875 175.226562 61.601562 175.339844 61.40625 C 175.519531 61.085938 175.785156 60.78125 175.921875 60.570312 C 176.371094 59.957031 176.871094 59.386719 177.402344 58.828125 C 177.929688 58.285156 178.5 57.769531 179.074219 57.28125 C 180.339844 56.207031 181.707031 55.359375 183.128906 54.691406 C 184.589844 53.992188 186.109375 53.492188 187.683594 53.183594 C 190.820312 52.558594 194.109375 52.640625 197.328125 53.335938 C 197.4375 53.351562 197.550781 53.28125 197.578125 53.171875 C 197.605469 53.058594 197.535156 52.949219 197.425781 52.917969 C 194.148438 52.140625 190.777344 51.957031 187.574219 52.558594 C 185.929688 52.851562 184.339844 53.335938 182.835938 54.0625 C 181.359375 54.773438 179.964844 55.691406 178.683594 56.820312 C 178.097656 57.335938 177.539062 57.894531 177.011719 58.464844 C 176.480469 59.050781 175.992188 59.664062 175.5625 60.320312 C 175.378906 60.570312 175.058594 60.988281 174.890625 61.394531 C 174.808594 61.601562 174.753906 61.8125 174.765625 61.992188 C 174.78125 62.105469 174.878906 62.1875 174.976562 62.175781 C 175.085938 62.160156 175.171875 62.078125 175.15625 61.964844 Z M 189.078125 58.019531 C 188.339844 58.1875 187.601562 58.382812 186.890625 58.621094 C 186.164062 58.871094 185.453125 59.148438 184.773438 59.46875 C 183.363281 60.125 182.070312 60.933594 180.925781 61.851562 C 180.507812 62.1875 180.105469 62.535156 179.726562 62.898438 C 179.351562 63.273438 178.976562 63.664062 178.65625 64.082031 C 178.613281 64.140625 178.570312 64.195312 178.527344 64.265625 C 178.402344 64.488281 178.304688 64.765625 178.195312 64.90625 C 178.125 64.988281 178.125 65.101562 178.207031 65.183594 C 178.277344 65.253906 178.402344 65.242188 178.472656 65.171875 C 178.515625 65.113281 178.570312 65.058594 178.613281 64.976562 C 178.722656 64.78125 178.847656 64.515625 178.988281 64.347656 C 179.308594 63.972656 179.671875 63.609375 180.0625 63.273438 C 180.453125 62.925781 180.855469 62.605469 181.261719 62.300781 C 182.402344 61.433594 183.683594 60.695312 185.0625 60.082031 C 185.71875 59.789062 186.414062 59.511719 187.113281 59.273438 C 187.796875 59.039062 188.507812 58.828125 189.230469 58.660156 C 192.144531 57.949219 195.207031 57.824219 197.96875 58.480469 C 198.078125 58.507812 198.191406 58.4375 198.21875 58.328125 C 198.261719 58.214844 198.191406 58.105469 198.078125 58.078125 C 195.25 57.324219 192.101562 57.351562 189.078125 58.019531 Z M 188.128906 55.289062 C 187.210938 55.539062 186.320312 55.832031 185.441406 56.207031 C 184.128906 56.765625 182.890625 57.492188 181.789062 58.355469 C 181.078125 58.898438 180.410156 59.511719 179.796875 60.152344 C 179.171875 60.792969 178.597656 61.492188 178.054688 62.1875 C 177.875 62.425781 177.691406 62.660156 177.527344 62.898438 C 177.359375 63.148438 177.191406 63.386719 177.023438 63.636719 L 176.691406 64.140625 C 176.632812 64.222656 176.480469 64.363281 176.46875 64.402344 C 176.4375 64.5 176.46875 64.570312 176.496094 64.613281 C 176.523438 64.640625 176.59375 64.710938 176.71875 64.683594 C 176.800781 64.65625 176.871094 64.570312 176.855469 64.488281 C 176.914062 64.445312 176.996094 64.390625 177.011719 64.363281 L 177.371094 63.875 C 177.539062 63.636719 177.707031 63.402344 177.886719 63.175781 C 178.070312 62.941406 178.25 62.71875 178.429688 62.496094 C 178.988281 61.8125 179.574219 61.171875 180.203125 60.558594 C 180.8125 59.945312 181.46875 59.371094 182.164062 58.855469 C 183.238281 58.046875 184.453125 57.378906 185.71875 56.851562 C 186.554688 56.488281 187.417969 56.179688 188.296875 55.945312 C 190.527344 55.332031 192.867188 55.09375 195.082031 55.261719 C 195.847656 55.304688 196.949219 55.398438 197.910156 55.691406 C 198.539062 55.886719 199.109375 56.152344 199.484375 56.558594 C 199.570312 56.640625 199.695312 56.65625 199.792969 56.570312 C 199.875 56.5 199.890625 56.363281 199.808594 56.277344 C 199.390625 55.804688 198.761719 55.46875 198.050781 55.246094 C 197.046875 54.925781 195.917969 54.785156 195.140625 54.71875 C 192.855469 54.507812 190.429688 54.691406 188.128906 55.289062 Z M 203.847656 65.367188 C 203.804688 65.476562 203.695312 65.53125 203.582031 65.503906 C 200.933594 64.738281 198.21875 64.570312 195.488281 64.722656 C 193.035156 64.863281 190.597656 65.269531 188.1875 65.769531 C 186.554688 66.089844 184.9375 66.453125 183.351562 66.816406 C 182.097656 67.09375 180.8125 67.414062 179.519531 67.636719 C 178.640625 67.789062 177.761719 67.902344 176.898438 67.917969 C 176.507812 67.929688 176.117188 67.929688 175.726562 67.902344 C 175.351562 67.875 174.960938 67.832031 174.570312 67.777344 L 173.847656 67.625 C 173.804688 67.609375 173.707031 67.554688 173.625 67.511719 C 173.554688 67.566406 173.441406 67.566406 173.375 67.5 C 173.261719 67.402344 173.304688 67.304688 173.316406 67.261719 C 173.34375 67.207031 173.386719 67.148438 173.484375 67.136719 C 173.554688 67.136719 173.820312 67.207031 173.929688 67.234375 L 174.640625 67.359375 C 175.003906 67.402344 175.378906 67.429688 175.757812 67.441406 C 176.117188 67.457031 176.496094 67.441406 176.871094 67.429688 C 177.722656 67.371094 178.570312 67.246094 179.421875 67.078125 C 180.6875 66.828125 181.957031 66.480469 183.210938 66.175781 C 184.785156 65.8125 186.402344 65.421875 188.046875 65.085938 C 190.5 64.597656 192.980469 64.222656 195.460938 64.140625 C 198.246094 64.027344 201.019531 64.265625 203.695312 65.101562 C 203.804688 65.128906 203.875 65.253906 203.847656 65.367188 "/>
<path style=" stroke:none;fill-rule:nonzero;fill:rgb(32.939148%,32.939148%,32.939148%);fill-opacity:1;" d="M 278.199219 265.71875 L 278.214844 265.734375 L 278.230469 265.703125 L 278.214844 265.675781 Z M 315.796875 274.484375 C 307.183594 272.480469 298.601562 270.359375 289.890625 268.828125 C 288.066406 268.507812 285.363281 267.683594 282.828125 267.253906 C 281.78125 267.070312 280.75 266.960938 279.832031 266.972656 C 279.734375 266.804688 279.636719 266.652344 279.539062 266.484375 C 279.621094 266.332031 279.707031 266.191406 279.777344 266.039062 C 279.789062 266.039062 279.789062 266.054688 279.804688 266.066406 C 279.941406 266.191406 280.179688 266.179688 280.304688 266.039062 C 280.890625 265.398438 282.128906 264.964844 283.511719 264.617188 C 285.699219 264.074219 288.261719 263.78125 289.472656 263.460938 C 298.097656 261.175781 306.78125 258.972656 315.503906 257.050781 C 315.683594 257.007812 315.808594 256.828125 315.769531 256.632812 C 315.726562 256.4375 315.546875 256.3125 315.351562 256.367188 C 306.628906 258.289062 297.917969 260.476562 289.292969 262.765625 C 288.09375 263.085938 285.53125 263.378906 283.328125 263.921875 C 282.101562 264.226562 280.972656 264.632812 280.25 265.148438 L 280.457031 264.757812 C 284.25 261.34375 288.875 258.597656 292.847656 255.503906 C 298.238281 251.265625 303.574219 245.886719 309.789062 242.847656 C 309.972656 242.75 310.042969 242.539062 309.957031 242.359375 C 309.859375 242.179688 309.652344 242.109375 309.484375 242.191406 C 303.226562 245.257812 297.835938 250.679688 292.398438 254.929688 C 288.902344 257.664062 284.890625 260.128906 281.390625 263.015625 C 284.597656 257.0625 287.96875 251.210938 291.285156 245.328125 C 292.59375 242.972656 293.933594 240.632812 295.285156 238.304688 C 295.714844 237.578125 296.132812 236.855469 296.539062 236.128906 C 296.59375 236.046875 296.984375 235.417969 297.109375 235.210938 C 297.195312 235.152344 297.261719 235.054688 297.277344 234.945312 C 297.320312 234.707031 297.179688 234.609375 297.109375 234.566406 C 297.027344 234.527344 296.929688 234.5 296.804688 234.539062 C 296.761719 234.554688 296.636719 234.625 296.523438 234.777344 C 296.34375 235.042969 295.980469 235.667969 295.925781 235.78125 C 295.507812 236.503906 295.089844 237.230469 294.671875 237.957031 C 293.304688 240.28125 291.980469 242.625 290.660156 244.980469 C 287.035156 251.390625 283.34375 257.789062 279.886719 264.3125 C 279.679688 264.507812 279.457031 264.703125 279.246094 264.910156 C 281.726562 257.203125 282.632812 248.546875 284.457031 240.769531 C 284.988281 238.472656 285.460938 236.171875 285.824219 233.84375 C 285.878906 233.578125 286.089844 232.699219 286.144531 232.101562 C 286.171875 231.890625 286.15625 231.695312 286.144531 231.570312 C 286.117188 231.460938 286.074219 231.375 286.019531 231.320312 C 285.894531 231.167969 285.671875 231.140625 285.515625 231.265625 C 285.378906 231.390625 285.347656 231.585938 285.433594 231.726562 C 285.445312 231.765625 285.445312 231.921875 285.433594 232.046875 C 285.378906 232.617188 285.167969 233.46875 285.125 233.730469 C 284.75 236.046875 284.289062 238.332031 283.761719 240.601562 C 282.03125 248.019531 281.128906 256.226562 278.898438 263.628906 L 278.882812 263.640625 C 278.675781 264.339844 278.453125 265.023438 278.230469 265.703125 L 278.382812 265.957031 C 278.453125 266.082031 278.535156 266.207031 278.605469 266.316406 L 278.703125 266.484375 L 278.6875 266.527344 L 278.703125 266.554688 L 278.730469 266.511719 C 278.96875 266.902344 279.203125 267.308594 279.425781 267.699219 L 279.484375 267.78125 L 279.554688 267.90625 L 279.484375 267.808594 L 279.484375 267.78125 L 279.457031 267.753906 L 279.425781 267.699219 L 279.398438 267.699219 L 279.621094 268.074219 L 279.636719 268.046875 C 279.734375 268.214844 279.816406 268.382812 279.914062 268.546875 L 279.621094 268.074219 C 279.621094 268.15625 279.621094 268.253906 279.691406 268.382812 C 279.734375 268.492188 279.832031 268.5625 279.929688 268.574219 C 280.011719 268.714844 280.179688 268.757812 280.332031 268.714844 C 280.667969 268.996094 281.097656 269.382812 281.335938 269.550781 C 282.242188 270.234375 283.148438 270.902344 284.066406 271.558594 C 286.507812 273.316406 288.957031 275.042969 291.464844 276.714844 C 298.894531 281.691406 306.851562 285.914062 314.164062 291.03125 C 314.332031 291.140625 314.554688 291.097656 314.667969 290.945312 C 314.777344 290.777344 314.738281 290.554688 314.582031 290.445312 C 307.253906 285.316406 299.296875 281.09375 291.855469 276.128906 C 289.363281 274.457031 286.910156 272.742188 284.484375 270.988281 C 283.566406 270.332031 282.660156 269.664062 281.753906 268.980469 C 281.488281 268.769531 280.960938 268.296875 280.597656 268.019531 C 280.5 267.949219 280.417969 267.894531 280.347656 267.851562 C 280.304688 267.796875 280.277344 267.738281 280.25 267.683594 C 281.015625 267.710938 281.851562 267.808594 282.714844 267.960938 C 285.25 268.394531 287.957031 269.203125 289.765625 269.523438 C 298.460938 271.070312 307.046875 273.175781 315.628906 275.183594 C 315.824219 275.222656 316.003906 275.113281 316.0625 274.917969 C 316.101562 274.722656 315.976562 274.527344 315.796875 274.484375 Z M 278.621094 266.707031 L 278.6875 266.527344 L 278.214844 265.734375 L 278.1875 265.816406 L 278.074219 266.109375 L 278.199219 266.21875 L 278.0625 266.152344 L 278.046875 266.207031 L 277.992188 266.375 L 277.921875 266.554688 L 277.910156 266.582031 L 277.921875 266.542969 L 277.992188 266.375 L 278.046875 266.179688 L 278.074219 266.109375 L 277.910156 266.582031 C 277.910156 266.597656 277.910156 266.609375 277.894531 266.625 C 277.894531 266.667969 277.878906 266.707031 277.894531 266.734375 C 277.894531 266.792969 277.910156 266.832031 277.921875 266.875 C 277.9375 266.902344 277.964844 266.929688 277.992188 266.960938 C 278.007812 266.972656 278.019531 266.988281 278.046875 267 C 278.117188 267.058594 278.1875 267.070312 278.269531 267.070312 C 278.296875 267.070312 278.339844 267.058594 278.367188 267.042969 C 278.410156 267.027344 278.453125 267 278.480469 266.972656 C 278.464844 267.015625 278.4375 267.070312 278.410156 267.113281 C 278.328125 267.140625 278.230469 267.15625 278.144531 267.167969 C 278.117188 267.183594 278.074219 267.210938 278.035156 267.222656 C 278.019531 267.183594 278.007812 267.15625 277.976562 267.113281 C 277.910156 266.929688 277.6875 266.847656 277.503906 266.945312 C 277.324219 267.027344 277.253906 267.238281 277.335938 267.417969 C 277.65625 268.074219 278.019531 268.757812 278.425781 269.441406 C 278.160156 269.761719 277.65625 270.445312 277.617188 270.5 C 277.101562 271.167969 276.585938 271.824219 276.054688 272.480469 C 274.089844 274.945312 272.167969 277.425781 270.21875 279.894531 C 264.488281 287.15625 258.652344 294.304688 252.769531 301.425781 C 252.644531 301.582031 252.671875 301.804688 252.828125 301.929688 C 252.980469 302.054688 253.203125 302.039062 253.328125 301.886719 C 259.207031 294.75 265.046875 287.601562 270.773438 280.339844 C 272.726562 277.871094 274.648438 275.378906 276.613281 272.925781 C 277.113281 272.296875 277.617188 271.671875 278.105469 271.027344 C 278.105469 271.253906 278.105469 271.433594 278.105469 271.488281 C 278.089844 272.382812 278.0625 273.285156 278.046875 274.179688 C 278.007812 276.839844 278.035156 279.503906 278.046875 282.164062 C 278.117188 290.613281 278.464844 299.085938 278.089844 307.53125 C 278.089844 307.726562 278.230469 307.894531 278.4375 307.894531 C 278.632812 307.90625 278.800781 307.753906 278.8125 307.558594 C 279.175781 299.097656 278.828125 290.625 278.757812 282.164062 C 278.746094 279.503906 278.714844 276.855469 278.757812 274.191406 C 278.773438 273.300781 278.800781 272.394531 278.8125 271.503906 C 278.828125 271.378906 278.8125 270.5 278.84375 270.152344 C 280.542969 272.898438 282.6875 275.683594 284.289062 278.277344 C 288.847656 285.59375 293.011719 293.007812 297.136719 300.5625 C 297.222656 300.742188 297.445312 300.800781 297.613281 300.703125 C 297.792969 300.617188 297.847656 300.394531 297.75 300.226562 C 293.640625 292.660156 289.460938 285.230469 284.902344 277.898438 C 282.925781 274.707031 280.109375 271.210938 278.355469 267.867188 C 278.675781 267.78125 279.039062 267.726562 279.398438 267.699219 L 278.703125 266.554688 Z M 277.589844 264.714844 C 277.796875 265.035156 278.007812 265.355469 278.214844 265.675781 L 278.882812 263.640625 L 278.898438 263.628906 C 278.910156 255.113281 277.601562 246.765625 276.847656 238.277344 C 276.640625 235.921875 276.460938 233.566406 276.304688 231.210938 C 276.292969 231.140625 276.152344 229.496094 276.140625 229.328125 C 276.167969 229.257812 276.152344 229.1875 276.140625 229.117188 C 276.070312 228.921875 275.859375 228.839844 275.679688 228.910156 C 275.625 228.921875 275.441406 229.019531 275.429688 229.285156 C 275.414062 229.605469 275.582031 231.167969 275.582031 231.265625 C 275.75 233.621094 275.929688 235.988281 276.140625 238.34375 C 276.917969 247.027344 278.269531 255.574219 278.171875 264.296875 C 273.992188 257.832031 268.863281 251.878906 264.644531 245.480469 C 263.332031 243.503906 262.078125 241.507812 260.769531 239.542969 C 260.644531 239.335938 259.765625 238.066406 259.683594 237.941406 C 259.667969 237.800781 259.570312 237.691406 259.445312 237.648438 C 259.265625 237.578125 259.054688 237.675781 258.984375 237.859375 C 258.972656 237.914062 258.957031 237.96875 258.972656 238.050781 C 258.984375 238.121094 259.027344 238.234375 259.109375 238.375 C 259.347656 238.804688 260.058594 239.738281 260.183594 239.933594 C 261.480469 241.898438 262.746094 243.90625 264.042969 245.871094 C 268.28125 252.28125 273.40625 258.234375 277.589844 264.703125 C 271.625 259.390625 264.699219 255.015625 258.46875 250.054688 C 256.269531 248.296875 253.382812 246.554688 251.601562 244.324219 C 251.476562 244.15625 251.253906 244.144531 251.097656 244.269531 C 250.945312 244.378906 250.917969 244.601562 251.042969 244.769531 C 252.855469 247.027344 255.78125 248.828125 258.023438 250.609375 C 264.585938 255.824219 271.917969 260.410156 278.074219 266.109375 L 278.199219 265.71875 Z M 90.796875 278.234375 C 90.742188 278.054688 90.535156 277.957031 90.351562 278.011719 C 82.394531 280.660156 73.449219 280.980469 65.214844 282.277344 C 63.140625 282.597656 61.0625 282.902344 58.988281 283.222656 C 58.902344 283.238281 58.261719 283.390625 57.773438 283.476562 C 57.648438 283.488281 57.496094 283.488281 57.425781 283.503906 C 57.316406 283.433594 57.175781 283.433594 57.050781 283.515625 C 56.898438 283.628906 56.855469 283.835938 56.964844 284.003906 C 57.007812 284.074219 57.0625 284.128906 57.160156 284.171875 C 57.230469 284.199219 57.34375 284.214844 57.480469 284.214844 C 57.957031 284.199219 58.972656 283.949219 59.097656 283.933594 C 61.175781 283.613281 63.25 283.308594 65.328125 282.972656 C 73.605469 281.675781 82.589844 281.355469 90.574219 278.695312 C 90.757812 278.625 90.867188 278.429688 90.796875 278.234375 Z M 92.246094 274.027344 C 91.636719 274.359375 91.007812 274.695312 90.394531 275.042969 C 90.378906 275.183594 90.28125 275.320312 90.144531 275.363281 C 90.046875 275.390625 89.949219 275.378906 89.863281 275.335938 C 89.710938 275.433594 89.558594 275.515625 89.390625 275.601562 C 89.613281 275.699219 89.808594 275.796875 89.894531 275.851562 C 89.949219 275.894531 89.992188 275.933594 90.019531 275.976562 C 90.785156 275.351562 91.539062 274.695312 92.246094 274.027344 Z M 133.132812 273.707031 C 133.101562 273.789062 133.0625 273.871094 132.992188 273.929688 C 132.921875 273.996094 132.796875 274.054688 132.644531 274.09375 C 132.101562 274.222656 130.847656 274.191406 130.691406 274.207031 C 128.269531 274.359375 125.828125 274.402344 123.390625 274.511719 C 114.195312 274.902344 104.898438 276.089844 95.675781 275.78125 C 104.050781 280.242188 112.703125 284.214844 121.007812 288.828125 C 123.28125 290.082031 125.566406 291.351562 127.863281 292.578125 C 128.199219 292.757812 129.242188 293.148438 129.925781 293.484375 C 130.289062 293.664062 130.554688 293.84375 130.636719 293.957031 C 130.761719 294.109375 130.71875 294.347656 130.566406 294.457031 C 130.414062 294.570312 130.191406 294.542969 130.078125 294.386719 C 130.066406 294.386719 129.828125 294.222656 129.621094 294.125 C 128.921875 293.789062 127.863281 293.386719 127.53125 293.203125 C 125.230469 291.976562 122.945312 290.722656 120.660156 289.453125 C 112.019531 284.644531 103.003906 280.546875 94.324219 275.851562 C 94.324219 275.992188 94.324219 276.128906 94.324219 276.269531 C 94.339844 276.382812 94.367188 276.492188 94.378906 276.589844 C 94.503906 276.589844 94.628906 276.644531 94.699219 276.742188 C 99.898438 284.3125 106.167969 291.058594 112.648438 297.523438 C 114.375 299.253906 116.117188 300.9375 117.941406 302.570312 C 118 302.613281 119.28125 303.699219 119.40625 303.796875 C 119.449219 303.824219 119.488281 303.851562 119.515625 303.878906 C 119.65625 304.019531 119.65625 304.242188 119.515625 304.382812 C 119.488281 304.421875 119.28125 304.578125 119.015625 304.410156 C 118.75 304.226562 117.523438 303.15625 117.46875 303.097656 C 115.644531 301.46875 113.875 299.769531 112.144531 298.039062 C 105.847656 291.753906 99.757812 285.203125 94.644531 277.914062 C 96.21875 285.609375 98.574219 293.132812 100.875 300.632812 C 101.695312 303.292969 102.40625 305.96875 103.019531 308.6875 C 103.226562 309.59375 103.421875 310.527344 103.589844 311.449219 C 103.632812 311.683594 103.757812 312.132812 103.8125 312.4375 C 103.855469 312.660156 103.839844 312.828125 103.800781 312.910156 C 103.742188 313.066406 103.632812 313.132812 103.507812 313.148438 C 103.421875 313.175781 103.285156 313.175781 103.128906 313.035156 C 102.976562 312.910156 102.949219 312.6875 103.074219 312.535156 L 103.089844 312.519531 C 103.03125 312.269531 102.921875 311.769531 102.878906 311.574219 C 102.726562 310.652344 102.53125 309.746094 102.324219 308.84375 C 101.710938 306.136719 101 303.476562 100.191406 300.839844 C 98.03125 293.804688 95.816406 286.722656 94.253906 279.503906 C 93.890625 287.90625 92.261719 296.519531 91.132812 304.714844 C 90.8125 307.070312 90.492188 309.441406 90.199219 311.796875 C 90.1875 311.878906 90.117188 312.980469 90.03125 313.425781 C 90.003906 313.59375 89.960938 313.707031 89.921875 313.746094 C 89.863281 313.84375 89.796875 313.886719 89.738281 313.902344 C 89.542969 313.972656 89.347656 313.859375 89.28125 313.679688 C 89.238281 313.582031 89.265625 313.46875 89.320312 313.371094 C 89.335938 313.203125 89.476562 311.796875 89.488281 311.714844 C 89.796875 309.34375 90.101562 306.972656 90.421875 304.617188 C 91.621094 295.90625 93.40625 286.75 93.585938 277.859375 C 93.585938 277.914062 93.570312 277.957031 93.542969 277.996094 C 88.917969 285.425781 84.457031 292.9375 79.804688 300.339844 C 78.648438 302.195312 77.546875 304.0625 76.320312 305.859375 C 76.238281 305.984375 75.21875 307.449219 75.121094 307.585938 C 75.109375 307.65625 75.066406 307.710938 75.011719 307.753906 C 74.859375 307.878906 74.636719 307.851562 74.507812 307.699219 C 74.480469 307.671875 74.371094 307.488281 74.496094 307.253906 C 74.664062 306.945312 75.636719 305.609375 75.734375 305.46875 C 76.949219 303.671875 78.046875 301.804688 79.207031 299.964844 C 83.84375 292.5625 88.320312 285.050781 92.929688 277.621094 C 93.042969 277.453125 93.265625 277.398438 93.417969 277.511719 C 93.515625 277.566406 93.585938 277.664062 93.585938 277.773438 C 93.597656 277.285156 93.597656 276.8125 93.597656 276.339844 C 93.570312 276.15625 93.542969 275.976562 93.503906 275.796875 C 93.488281 275.683594 93.53125 275.574219 93.597656 275.488281 L 93.597656 275.460938 C 93.417969 275.363281 93.238281 275.265625 93.054688 275.167969 C 92.859375 275.628906 92.679688 276.089844 92.484375 276.546875 C 92.414062 276.730469 92.207031 276.8125 92.023438 276.742188 C 91.828125 276.660156 91.746094 276.449219 91.828125 276.269531 C 92.023438 275.796875 92.21875 275.320312 92.414062 274.847656 C 91.453125 275.726562 90.464844 276.546875 89.460938 277.34375 C 89.308594 277.46875 89.070312 277.441406 88.960938 277.285156 C 88.832031 277.121094 88.863281 276.898438 89.015625 276.785156 C 89.167969 276.660156 89.320312 276.546875 89.460938 276.421875 C 89.347656 276.382812 88.960938 276.199219 88.609375 276.046875 L 88.5 276.117188 C 88.332031 276.214844 88.125 276.15625 88.027344 275.992188 C 87.984375 275.921875 87.96875 275.835938 87.96875 275.769531 C 86.089844 274.847656 84.25 273.871094 82.425781 272.839844 C 75.082031 268.703125 68.503906 263.390625 61.214844 259.183594 C 61.050781 259.085938 60.992188 258.875 61.089844 258.695312 C 61.1875 258.527344 61.410156 258.472656 61.578125 258.570312 C 68.867188 262.765625 75.429688 268.089844 82.773438 272.226562 C 84.613281 273.257812 86.480469 274.25 88.386719 275.167969 C 88.402344 275.183594 88.472656 275.210938 88.570312 275.253906 C 88.902344 275.058594 89.238281 274.875 89.558594 274.695312 C 87.246094 266.820312 86.171875 258.484375 84.527344 250.457031 C 84.222656 248.992188 84.097656 246.707031 83.746094 244.660156 C 83.523438 243.335938 83.21875 242.121094 82.703125 241.285156 C 82.589844 241.117188 82.648438 240.894531 82.8125 240.796875 C 82.980469 240.6875 83.191406 240.742188 83.300781 240.910156 C 83.859375 241.800781 84.207031 243.113281 84.457031 244.535156 C 84.792969 246.582031 84.917969 248.855469 85.226562 250.316406 C 86.855469 258.261719 87.914062 266.527344 90.199219 274.332031 C 91.214844 273.773438 92.246094 273.21875 93.277344 272.671875 C 95.980469 265.886719 98.433594 258.988281 101.027344 252.15625 C 102.058594 249.453125 102.992188 246.734375 103.925781 243.988281 C 103.964844 243.851562 104.46875 241.605469 104.664062 240.742188 C 104.523438 240.632812 104.496094 240.449219 104.578125 240.296875 C 104.675781 240.128906 104.761719 240.046875 104.816406 240.003906 C 104.957031 239.921875 105.066406 239.921875 105.152344 239.949219 C 105.261719 239.976562 105.429688 240.085938 105.445312 240.367188 C 105.472656 240.980469 104.664062 244.03125 104.59375 244.226562 C 103.675781 246.972656 102.726562 249.703125 101.695312 252.421875 C 99.214844 258.960938 96.859375 265.550781 94.296875 272.074219 C 98.910156 267.433594 102.964844 262.121094 107.324219 257.328125 C 109.804688 254.597656 112.300781 251.851562 114.792969 249.132812 C 114.890625 249.035156 116.6875 247.113281 117.007812 246.597656 C 117.007812 246.527344 117.035156 246.472656 117.078125 246.414062 C 117.203125 246.261719 117.425781 246.21875 117.582031 246.34375 C 117.664062 246.414062 117.746094 246.527344 117.71875 246.707031 C 117.707031 246.777344 117.636719 246.945312 117.46875 247.167969 C 116.941406 247.878906 115.40625 249.507812 115.324219 249.605469 C 112.828125 252.339844 110.335938 255.070312 107.839844 257.816406 C 103.898438 262.164062 100.175781 266.929688 96.078125 271.253906 C 103.644531 267.476562 111.503906 264.253906 119.292969 260.925781 C 121.703125 259.894531 124.15625 258.902344 126.582031 257.871094 C 126.707031 257.816406 128.769531 257.035156 128.964844 256.964844 C 129.019531 256.894531 129.105469 256.839844 129.214844 256.839844 C 129.410156 256.828125 129.578125 256.980469 129.59375 257.175781 C 129.59375 257.257812 129.5625 257.425781 129.355469 257.566406 C 128.964844 257.800781 127 258.472656 126.859375 258.527344 C 124.4375 259.558594 121.996094 260.546875 119.574219 261.578125 C 111.171875 265.175781 102.671875 268.660156 94.53125 272.828125 C 94.242188 273.121094 93.949219 273.414062 93.640625 273.707031 C 93.53125 273.96875 93.433594 274.234375 93.320312 274.5 C 93.628906 274.667969 93.933594 274.835938 94.242188 275 C 94.253906 275 94.269531 275 94.28125 275 C 103.953125 275.488281 113.707031 274.222656 123.363281 273.800781 C 125.789062 273.691406 128.226562 273.648438 130.636719 273.496094 C 130.761719 273.480469 131.527344 273.511719 132.113281 273.453125 C 132.265625 273.441406 132.449219 273.398438 132.519531 273.382812 C 132.601562 273.273438 132.742188 273.230469 132.878906 273.273438 C 133.074219 273.328125 133.1875 273.523438 133.132812 273.707031 Z M 267.359375 276.605469 C 259.472656 281.996094 251.265625 286.835938 243.140625 291.824219 C 242.960938 291.933594 242.753906 291.878906 242.640625 291.710938 C 242.542969 291.546875 242.597656 291.320312 242.765625 291.226562 C 250.890625 286.234375 259.082031 281.398438 266.957031 276.019531 C 268.40625 275.027344 270.871094 273.789062 272.960938 272.421875 C 274.3125 271.53125 275.511719 270.582031 276.152344 269.59375 C 276.25 269.425781 276.472656 269.382812 276.640625 269.480469 C 276.808594 269.59375 276.847656 269.816406 276.753906 269.984375 C 276.070312 271.042969 274.800781 272.058594 273.351562 273.007812 C 271.261719 274.386719 268.808594 275.613281 267.359375 276.605469 "/>
<g clip-path="url(#clip2)" clip-rule="nonzero">
<path style=" stroke:none;fill-rule:nonzero;fill:rgb(23.139954%,26.269531%,37.249756%);fill-opacity:1;" d="M 95.5625 312.746094 C 74.941406 312.746094 58.164062 296.480469 58.164062 276.480469 C 58.164062 256.476562 74.941406 240.214844 95.5625 240.214844 C 116.1875 240.214844 132.964844 256.476562 132.964844 276.480469 C 132.964844 296.480469 116.1875 312.746094 95.5625 312.746094 Z M 95.5625 219.542969 C 63.542969 219.542969 37.5 245.089844 37.5 276.480469 C 37.5 307.867188 63.542969 333.414062 95.5625 333.414062 C 127.585938 333.414062 153.628906 307.867188 153.628906 276.480469 C 153.628906 245.089844 127.585938 219.542969 95.5625 219.542969 Z M 279.46875 304.605469 C 258.832031 304.605469 242.054688 288.339844 242.054688 268.339844 C 242.054688 248.351562 258.832031 232.074219 279.46875 232.074219 C 300.078125 232.074219 316.867188 248.351562 316.867188 268.339844 C 316.867188 288.339844 300.078125 304.605469 279.46875 304.605469 Z M 279.46875 211.402344 C 247.449219 211.402344 221.390625 236.953125 221.390625 268.339844 C 221.390625 299.742188 247.449219 325.273438 279.46875 325.273438 C 311.476562 325.273438 337.535156 299.742188 337.535156 268.339844 C 337.535156 236.953125 311.476562 211.402344 279.46875 211.402344 "/>
</g>
<path style=" stroke:none;fill-rule:evenodd;fill:rgb(49.409485%,85.099792%,34.118652%);fill-opacity:1;" d="M 233.457031 220.882812 L 208.890625 272.5625 L 132.460938 218.261719 Z M 282.226562 269.34375 L 253.035156 194.234375 L 245.441406 193.035156 L 246.402344 195.320312 L 245.582031 195.417969 L 236.34375 214.832031 L 125.523438 212.433594 L 144.558594 171.863281 L 139.832031 167.417969 L 88.863281 273.246094 L 95.078125 277.382812 L 122.121094 219.710938 L 211.527344 281.0625 L 211.816406 280.4375 L 212.109375 280.675781 L 249.273438 202.164062 L 275.484375 264.757812 L 221.054688 265.648438 L 221.28125 272.046875 L 277.042969 271.167969 L 276.765625 267.824219 L 278.046875 270.890625 L 282.226562 269.34375 "/>
<path style=" stroke:none;fill-rule:evenodd;fill:rgb(96.078491%,72.938538%,32.548523%);fill-opacity:1;" d="M 226.742188 194.246094 C 226.742188 194.246094 223.425781 193.660156 225.097656 192.394531 C 227.550781 190.539062 255.292969 173.785156 259.570312 173.757812 C 264.390625 173.730469 263.011719 181.203125 264.613281 184.671875 C 265.226562 185.996094 265.773438 187.390625 265.996094 188.839844 C 266.191406 189.996094 266.160156 191.207031 265.925781 192.363281 C 264.140625 201.132812 256.019531 195.527344 250.277344 195.710938 C 245.09375 195.878906 227.589844 197.675781 226.742188 194.246094 "/>
<path style=" stroke:none;fill-rule:evenodd;fill:rgb(32.939148%,32.939148%,32.939148%);fill-opacity:1;" d="M 184.519531 197.800781 C 193.105469 182.496094 204.058594 178.59375 216.652344 166.21875 C 220.332031 162.609375 224.148438 158.035156 228.652344 155.390625 C 238.417969 149.644531 256.769531 150.582031 255.808594 165.648438 C 255.683594 167.625 255.25 169.578125 254.5 171.417969 C 251.070312 179.847656 243.183594 184.617188 235.882812 189.089844 C 226.492188 194.875 198.121094 206.078125 198.121094 206.078125 L 184.519531 197.800781 "/>
<path style=" stroke:none;fill-rule:evenodd;fill:rgb(32.939148%,32.939148%,32.939148%);fill-opacity:1;" d="M 282.394531 267.753906 C 282.355469 267.726562 282.3125 267.683594 282.269531 267.671875 C 281.796875 267.308594 281.128906 266.972656 280.304688 266.625 C 276.808594 265.175781 270.789062 263.78125 263.765625 262.457031 C 258.148438 261.414062 251.90625 260.394531 245.789062 259.488281 C 234.976562 257.898438 224.566406 256.589844 218.632812 255.878906 C 216.429688 255.613281 214.84375 255.433594 214.089844 255.335938 C 213.851562 255.308594 213.683594 255.28125 213.617188 255.28125 C 212.765625 255.140625 212.976562 254.207031 212.988281 254.164062 C 213.15625 253.859375 213.492188 253.703125 213.8125 253.773438 C 213.878906 253.773438 214.035156 253.789062 214.242188 253.816406 C 215.007812 253.886719 216.597656 254.011719 218.800781 254.191406 C 224.777344 254.722656 235.253906 255.65625 246.125 256.964844 C 252.3125 257.71875 258.609375 258.582031 264.28125 259.542969 C 273.296875 261.089844 280.722656 262.929688 283.691406 264.800781 C 285.113281 265.691406 285.726562 266.75 285.765625 267.65625 C 285.824219 268.519531 285.417969 269.511719 284.207031 270.347656 C 282.101562 271.824219 276.613281 273.273438 269.378906 274.5 C 260.140625 276.0625 247.964844 277.355469 236.605469 278.359375 C 219.21875 279.894531 203.75 280.703125 203.75 280.703125 C 203.261719 280.742188 202.832031 280.367188 202.800781 279.867188 C 202.761719 279.378906 203.136719 278.945312 203.640625 278.917969 C 203.640625 278.917969 237.066406 276.367188 260.785156 272.828125 C 268.835938 271.628906 275.761719 270.332031 279.816406 268.9375 C 280.820312 268.589844 281.628906 268.242188 282.199219 267.894531 C 282.269531 267.851562 282.324219 267.808594 282.394531 267.753906 "/>
<path style=" stroke:none;fill-rule:evenodd;fill:rgb(96.078491%,72.938538%,32.548523%);fill-opacity:1;" d="M 210.71875 251.835938 C 219.996094 251.835938 227.535156 259.238281 227.535156 268.351562 C 227.535156 277.46875 219.996094 284.867188 210.71875 284.867188 C 201.4375 284.867188 193.914062 277.46875 193.914062 268.351562 C 193.914062 259.238281 201.4375 251.835938 210.71875 251.835938 "/>
<path style=" stroke:none;fill-rule:evenodd;fill:rgb(23.139954%,26.269531%,37.249756%);fill-opacity:1;" d="M 216.960938 275.183594 C 215.191406 276.8125 212.78125 277.816406 210.117188 277.816406 C 207.441406 277.816406 205.03125 276.8125 203.25 275.195312 C 201.421875 273.511719 200.265625 271.15625 200.265625 268.546875 C 200.253906 265.941406 201.394531 263.585938 203.234375 261.886719 C 205.003906 260.253906 207.441406 259.238281 210.117188 259.238281 L 210.117188 259.222656 C 212.792969 259.222656 215.21875 260.242188 216.988281 261.886719 C 218.828125 263.585938 219.957031 265.941406 219.957031 268.546875 C 219.957031 271.15625 218.800781 273.511719 216.960938 275.183594 Z M 217.390625 261.441406 C 215.511719 259.726562 212.933594 258.667969 210.117188 258.679688 L 210.117188 258.667969 C 207.277344 258.652344 204.710938 259.710938 202.816406 261.441406 C 200.851562 263.238281 199.625 265.761719 199.625 268.546875 C 199.625 271.351562 200.839844 273.871094 202.800781 275.683594 C 204.683594 277.425781 207.261719 278.5 210.117188 278.5 C 212.945312 278.5 215.539062 277.425781 217.433594 275.699219 C 219.398438 273.886719 220.609375 271.351562 220.597656 268.546875 C 220.597656 265.761719 219.371094 263.238281 217.390625 261.441406 "/>
<path style=" stroke:none;fill-rule:evenodd;fill:rgb(98.81897%,90.979004%,73.728943%);fill-opacity:1;" d="M 220.082031 256.4375 C 220.054688 257.203125 219.09375 255.308594 218.617188 254.722656 C 217.671875 253.539062 216.738281 252.367188 215.789062 251.183594 C 212.625 247.167969 209.464844 243.152344 206.230469 239.179688 C 204.085938 236.5625 201.9375 233.941406 199.765625 231.335938 C 198.191406 229.46875 196.589844 227.597656 195.042969 225.691406 C 189.871094 219.292969 175.574219 203.140625 186.222656 195.863281 C 194.636719 190.105469 201.410156 197.757812 205.4375 205.300781 C 210.785156 215.292969 214.898438 226.457031 219.21875 237.007812 C 221.222656 241.914062 223.273438 249.300781 227.535156 252.839844 "/>
<path style=" stroke:none;fill-rule:evenodd;fill:rgb(32.939148%,32.939148%,32.939148%);fill-opacity:1;" d="M 216.988281 255.921875 C 220.25 255.085938 222.421875 250.917969 225.25 249.96875 C 226.128906 249.675781 233.25 258.414062 233.515625 259.40625 C 234.15625 261.832031 230.265625 266.027344 229.070312 267.808594 C 224.957031 273.96875 221.070312 281.636719 215.050781 286.179688 C 212.820312 287.878906 208.726562 289.691406 206.246094 287.351562 C 204.152344 285.386719 204.210938 281.984375 205.410156 279.613281 C 206.285156 277.886719 212.390625 272.296875 215.230469 266.304688 C 217.503906 261.550781 216.667969 255.992188 216.988281 255.921875 "/>
<path style=" stroke:none;fill-rule:evenodd;fill:rgb(23.139954%,26.269531%,37.249756%);fill-opacity:1;" d="M 278.941406 262.179688 C 275.609375 262.179688 272.890625 264.785156 272.890625 268.003906 C 272.890625 271.238281 275.609375 273.84375 278.941406 273.84375 C 282.285156 273.84375 285 271.238281 285 268.003906 C 285 264.785156 282.285156 262.179688 278.941406 262.179688 Z M 92.109375 270.527344 C 88.765625 270.527344 86.046875 273.132812 86.046875 276.367188 C 86.046875 279.585938 88.765625 282.191406 92.109375 282.191406 C 95.453125 282.191406 98.15625 279.585938 98.15625 276.367188 C 98.15625 273.132812 95.453125 270.527344 92.109375 270.527344 Z M 149.460938 167 C 149.460938 170.523438 146.425781 173.382812 142.703125 173.382812 C 138.96875 173.382812 135.933594 170.523438 135.933594 167 C 135.933594 163.472656 138.96875 160.601562 142.703125 160.601562 C 146.425781 160.601562 149.460938 163.472656 149.460938 167 "/>
<path style=" stroke:none;fill-rule:evenodd;fill:rgb(96.078491%,72.938538%,32.548523%);fill-opacity:1;" d="M 193.632812 287.140625 C 193.632812 288.324219 193.953125 290.679688 193.4375 291.699219 C 193.242188 292.089844 190.316406 292.074219 189.898438 292.171875 C 185.941406 293.035156 182.179688 294.640625 178.207031 295.460938 C 175.9375 295.921875 171.199219 297.664062 168.902344 297.066406 C 168.035156 296.839844 167.800781 292.226562 168.160156 291.769531 "/>
<path style=" stroke:none;fill-rule:evenodd;fill:rgb(96.078491%,72.938538%,32.548523%);fill-opacity:1;" d="M 232.355469 262.695312 C 238.335938 262.695312 233.195312 268.449219 232.035156 270.289062 C 227.816406 276.996094 223.632812 284.492188 217.921875 290.039062 C 216.179688 291.753906 215.734375 292.074219 214.074219 290.289062 C 213.910156 290.109375 211.789062 287.878906 212.011719 287.644531 "/>
<path style=" stroke:none;fill-rule:evenodd;fill:rgb(49.409485%,85.099792%,34.118652%);fill-opacity:1;" d="M 209.589844 265.957031 C 210.773438 265.957031 211.75 266.902344 211.75 268.074219 C 211.75 269.246094 210.773438 270.191406 209.589844 270.191406 C 208.390625 270.191406 207.414062 269.246094 207.414062 268.074219 C 207.414062 266.902344 208.390625 265.957031 209.589844 265.957031 "/>
<path style=" stroke:none;fill-rule:evenodd;fill:rgb(23.139954%,26.269531%,37.249756%);fill-opacity:1;" d="M 192.628906 124.445312 C 192.546875 124.433594 192.464844 124.503906 192.449219 124.585938 C 192.449219 124.613281 192.421875 124.628906 192.40625 124.671875 C 192.351562 124.726562 192.296875 124.78125 192.226562 124.851562 C 192.03125 125.03125 191.78125 125.226562 191.695312 125.296875 C 191.265625 125.742188 190.820312 126.175781 190.375 126.59375 C 189.914062 127.027344 189.46875 127.445312 189.007812 127.875 C 187.628906 129.15625 186.222656 130.441406 184.757812 131.640625 C 183.78125 132.433594 182.777344 133.199219 181.734375 133.898438 C 181.484375 134.0625 181.21875 134.21875 180.953125 134.371094 C 179.851562 134.996094 178.683594 135.5 177.636719 136.167969 C 177.273438 136.40625 176.925781 136.796875 176.59375 137.285156 C 175.964844 138.21875 175.378906 139.445312 174.921875 140.070312 C 173.972656 141.367188 172.996094 142.636719 171.980469 143.890625 C 170.976562 145.128906 169.945312 146.355469 168.886719 147.554688 C 167.160156 149.507812 165.445312 151.542969 163.605469 153.453125 C 162.394531 154.734375 161.140625 155.945312 159.789062 157.046875 C 158.253906 158.300781 157.125 159.027344 155.898438 160.058594 C 155.410156 160.476562 154.910156 160.9375 154.351562 161.507812 C 154.269531 161.578125 154.285156 161.703125 154.351562 161.785156 C 154.4375 161.855469 154.5625 161.855469 154.632812 161.785156 C 155.1875 161.230469 155.691406 160.78125 156.179688 160.378906 C 157.417969 159.359375 158.546875 158.664062 160.09375 157.421875 C 161.472656 156.335938 162.769531 155.125 164.007812 153.839844 C 165.863281 151.945312 167.617188 149.925781 169.359375 147.988281 C 170.445312 146.789062 171.492188 145.5625 172.507812 144.308594 C 173.527344 143.054688 174.515625 141.785156 175.476562 140.476562 C 175.9375 139.835938 176.523438 138.609375 177.148438 137.675781 C 177.429688 137.269531 177.707031 136.921875 178 136.726562 C 179.03125 136.042969 180.1875 135.542969 181.261719 134.914062 C 181.539062 134.746094 181.816406 134.578125 182.082031 134.398438 C 183.128906 133.675781 184.128906 132.878906 185.105469 132.058594 C 186.570312 130.832031 187.949219 129.507812 189.3125 128.195312 C 189.761719 127.75 190.207031 127.320312 190.652344 126.886719 C 191.082031 126.441406 191.515625 125.996094 191.960938 125.546875 C 192.046875 125.449219 192.351562 125.226562 192.546875 125.003906 C 192.6875 124.867188 192.769531 124.726562 192.785156 124.628906 C 192.796875 124.53125 192.726562 124.445312 192.628906 124.445312 Z M 145.238281 156.90625 C 145.226562 156.921875 145.210938 156.921875 145.199219 156.921875 C 145.253906 156.964844 145.296875 156.976562 145.28125 156.90625 C 145.269531 156.90625 145.269531 156.90625 145.253906 156.90625 C 145.253906 156.90625 145.238281 156.90625 145.238281 156.90625 Z M 145.210938 156.363281 C 145.378906 156.351562 145.449219 156.449219 145.476562 156.488281 C 145.558594 156.613281 145.519531 156.78125 145.394531 156.851562 C 145.351562 156.878906 145.324219 156.894531 145.28125 156.90625 L 145.28125 156.894531 C 145.28125 156.894531 145.269531 156.894531 145.253906 156.90625 C 145.210938 156.90625 145.15625 156.894531 145.113281 156.867188 C 145.140625 156.894531 145.171875 156.90625 145.199219 156.921875 C 144.976562 157.003906 144.542969 157.171875 144.472656 157.199219 L 141.921875 158.21875 C 141.101562 158.550781 140.363281 158.859375 139.695312 159.152344 C 138.496094 159.652344 137.507812 160.140625 136.601562 160.824219 C 135.695312 161.519531 134.871094 162.414062 134.007812 163.75 C 133.925781 163.875 133.746094 163.917969 133.617188 163.835938 C 133.480469 163.75 133.453125 163.585938 133.535156 163.445312 C 134.414062 162.023438 135.261719 161.0625 136.195312 160.308594 C 137.128906 159.570312 138.160156 159.039062 139.429688 158.511719 C 140.097656 158.21875 140.851562 157.9375 141.671875 157.605469 C 142.019531 157.480469 142.371094 157.339844 142.71875 157.214844 C 143.234375 157.035156 143.75 156.851562 144.277344 156.65625 C 144.363281 156.628906 144.863281 156.460938 145.074219 156.390625 C 145.140625 156.378906 145.183594 156.363281 145.210938 156.363281 "/>
<path style=" stroke:none;fill-rule:evenodd;fill:rgb(96.078491%,72.938538%,32.548523%);fill-opacity:1;" d="M 217.15625 139.890625 C 217.476562 139.207031 217.78125 138.511719 218.089844 137.8125 C 218.546875 136.769531 218.996094 135.722656 219.441406 134.691406 C 219.480469 134.59375 219.441406 134.46875 219.34375 134.425781 C 219.246094 134.382812 219.132812 134.425781 219.078125 134.523438 C 218.492188 135.707031 217.894531 136.894531 217.308594 138.078125 C 216.917969 138.859375 216.515625 139.652344 216.136719 140.433594 C 215.96875 140.78125 215.804688 141.117188 215.636719 141.449219 C 215.398438 141.96875 215.148438 142.46875 214.898438 142.984375 C 214.871094 143.066406 213.976562 144.742188 213.671875 145.410156 C 213.617188 145.546875 213.574219 145.644531 213.558594 145.6875 C 213.519531 145.828125 213.585938 145.898438 213.617188 145.910156 C 213.683594 145.96875 213.796875 145.953125 213.839844 145.871094 C 213.867188 145.855469 213.878906 145.828125 213.878906 145.800781 C 213.867188 145.785156 213.867188 145.773438 213.878906 145.757812 L 213.878906 145.730469 L 213.878906 145.757812 C 213.910156 145.703125 213.949219 145.644531 213.992188 145.578125 C 214.355469 144.933594 215.371094 143.332031 215.425781 143.261719 C 215.734375 142.707031 216.039062 142.148438 216.332031 141.589844 C 216.613281 141.03125 216.890625 140.460938 217.15625 139.890625 Z M 222.867188 134.984375 C 222.171875 136.835938 221.445312 138.664062 220.722656 140.503906 C 220.25 141.730469 219.761719 142.957031 219.300781 144.183594 C 219.09375 144.710938 218.898438 145.242188 218.703125 145.773438 C 218.410156 146.566406 218.144531 147.375 217.851562 148.167969 C 217.515625 149.1875 217.167969 150.21875 216.820312 151.222656 C 216.667969 151.667969 216.515625 152.097656 216.359375 152.53125 L 215.871094 153.8125 C 215.832031 153.925781 215.746094 154.164062 215.679688 154.328125 C 215.679688 154.355469 215.664062 154.371094 215.648438 154.398438 C 215.648438 154.398438 215.648438 154.398438 215.636719 154.398438 C 215.550781 154.414062 215.484375 154.496094 215.511719 154.59375 C 215.523438 154.707031 215.59375 154.746094 215.621094 154.761719 C 215.679688 154.789062 215.746094 154.789062 215.816406 154.746094 C 215.859375 154.71875 215.914062 154.648438 215.957031 154.550781 C 216.054688 154.386719 216.164062 154.105469 216.222656 153.96875 C 216.304688 153.800781 216.386719 153.632812 216.457031 153.453125 C 216.570312 153.199219 216.667969 152.949219 216.777344 152.699219 C 217.015625 152.128906 217.253906 151.554688 217.476562 150.984375 C 217.808594 150.121094 218.144531 149.257812 218.464844 148.390625 C 218.785156 147.5 219.121094 146.636719 219.453125 145.742188 C 219.941406 144.433594 220.414062 143.097656 220.890625 141.773438 C 221.699219 139.554688 222.476562 137.339844 223.246094 135.125 C 223.273438 135.011719 223.214844 134.902344 223.117188 134.859375 C 223.019531 134.832031 222.894531 134.886719 222.867188 134.984375 Z M 234.796875 130.636719 C 234.671875 131.179688 234.503906 131.695312 234.320312 132.222656 C 234.210938 132.574219 234.085938 132.921875 233.972656 133.285156 C 233.847656 133.632812 233.722656 133.980469 233.613281 134.328125 C 233.445312 134.859375 233.289062 135.402344 233.136719 135.933594 C 232.914062 136.710938 232.71875 137.492188 232.566406 138.273438 C 232.539062 138.386719 232.609375 138.496094 232.707031 138.523438 C 232.816406 138.539062 232.914062 138.480469 232.941406 138.371094 C 233.207031 137.464844 233.542969 136.574219 233.863281 135.667969 C 234 135.304688 234.128906 134.957031 234.253906 134.59375 C 234.335938 134.34375 234.417969 134.105469 234.488281 133.855469 C 234.640625 133.339844 234.769531 132.824219 234.878906 132.292969 C 234.992188 131.765625 235.0625 131.222656 235.128906 130.691406 C 235.144531 130.609375 235.074219 130.523438 234.992188 130.496094 C 234.894531 130.480469 234.808594 130.550781 234.796875 130.636719 Z M 239.058594 123.125 C 238.988281 122.761719 238.976562 122.089844 238.90625 121.546875 C 238.863281 121.253906 238.796875 121.003906 238.710938 120.835938 C 238.667969 120.753906 238.570312 120.710938 238.488281 120.753906 C 238.40625 120.808594 238.363281 120.894531 238.417969 120.976562 C 238.472656 121.128906 238.503906 121.351562 238.53125 121.589844 C 238.570312 122.148438 238.53125 122.816406 238.570312 123.207031 C 238.683594 124.125 238.667969 125.03125 238.570312 125.910156 C 238.472656 126.832031 238.292969 127.707031 238.054688 128.585938 C 237.777344 129.644531 237.414062 130.691406 237.039062 131.738281 C 236.453125 133.296875 235.828125 134.859375 235.3125 136.449219 C 235.269531 136.558594 235.324219 136.671875 235.421875 136.699219 C 235.535156 136.738281 235.644531 136.683594 235.671875 136.585938 C 236.257812 135.011719 236.96875 133.492188 237.597656 131.960938 C 238.027344 130.898438 238.433594 129.855469 238.726562 128.769531 C 238.960938 127.847656 239.144531 126.929688 239.199219 125.964844 C 239.269531 125.046875 239.226562 124.097656 239.058594 123.125 Z M 212.5 97.671875 C 212.585938 97.742188 212.613281 97.855469 212.558594 97.953125 C 212.152344 98.59375 211.777344 99.246094 211.429688 99.929688 C 211.023438 100.738281 210.632812 101.5625 210.257812 102.398438 C 209.867188 103.21875 209.503906 104.070312 209.113281 104.894531 C 208.863281 105.449219 208.597656 106.007812 208.320312 106.550781 C 208.042969 107.109375 207.734375 107.636719 207.429688 108.167969 C 207.191406 108.574219 206.703125 109.660156 206.160156 110.496094 C 206.984375 109.9375 207.804688 109.378906 208.738281 108.808594 C 208.824219 108.753906 208.949219 108.78125 209.003906 108.878906 C 209.058594 108.960938 209.03125 109.089844 208.949219 109.144531 C 206.535156 110.71875 204.53125 112.25 202.675781 113.9375 C 201.730469 114.816406 200.808594 115.734375 199.917969 116.726562 C 199.472656 117.199219 199.039062 117.757812 198.609375 118.257812 C 198.71875 118.425781 198.914062 118.691406 199.082031 118.957031 C 199.304688 119.304688 199.515625 119.640625 199.542969 119.695312 C 199.640625 119.847656 199.722656 120.015625 199.808594 120.183594 C 199.875 120.335938 199.945312 120.503906 200.015625 120.671875 C 200.15625 120.992188 200.265625 121.296875 200.390625 121.617188 C 200.558594 122.089844 200.726562 122.566406 200.90625 123.027344 C 200.949219 123.125 200.90625 123.234375 200.808594 123.289062 C 200.710938 123.332031 200.601562 123.289062 200.546875 123.191406 C 200.265625 122.664062 199.988281 122.132812 199.722656 121.589844 C 199.554688 121.269531 199.402344 120.949219 199.25 120.628906 C 199.152344 120.417969 199.066406 120.195312 198.972656 119.988281 C 198.941406 119.929688 198.777344 119.597656 198.609375 119.21875 C 198.511719 118.984375 198.414062 118.761719 198.34375 118.578125 C 198.007812 118.96875 197.6875 119.316406 197.367188 119.734375 C 196.992188 120.210938 196.601562 120.683594 196.210938 121.144531 C 195.820312 121.605469 195.417969 122.050781 195 122.496094 C 194.902344 122.59375 194.414062 122.984375 194.316406 123.222656 C 194.316406 123.222656 194.316406 123.222656 194.300781 123.222656 C 194.300781 123.207031 194.300781 123.207031 194.300781 123.191406 C 194.300781 123.207031 194.300781 123.222656 194.300781 123.222656 C 194.300781 123.234375 194.300781 123.234375 194.300781 123.234375 C 194.316406 123.304688 194.289062 123.386719 194.207031 123.414062 C 194.136719 123.457031 194.023438 123.414062 193.996094 123.332031 C 193.953125 123.25 193.980469 123.109375 194.078125 122.957031 C 194.234375 122.691406 194.625 122.316406 194.707031 122.21875 C 195.011719 121.855469 195.320312 121.492188 195.613281 121.117188 C 196.058594 120.542969 196.492188 119.972656 196.910156 119.386719 C 197.730469 118.257812 198.550781 117.214844 199.402344 116.265625 C 200.324219 115.25 201.257812 114.328125 202.246094 113.449219 C 203.09375 112.710938 204 112.027344 204.949219 111.347656 C 204.960938 111.316406 204.949219 111.289062 204.976562 111.277344 C 205.214844 111.179688 205.449219 110.859375 205.6875 110.453125 C 206.203125 109.574219 206.675781 108.320312 206.914062 107.875 C 207.207031 107.316406 207.484375 106.746094 207.75 106.175781 C 207.945312 105.785156 208.125 105.410156 208.308594 105.019531 C 208.585938 104.445312 208.851562 103.863281 209.128906 103.289062 C 209.546875 102.410156 209.980469 101.546875 210.4375 100.699219 C 210.980469 99.679688 211.566406 98.675781 212.222656 97.730469 C 212.277344 97.644531 212.402344 97.617188 212.5 97.671875 "/>
<path style=" stroke:none;fill-rule:evenodd;fill:rgb(49.409485%,85.099792%,34.118652%);fill-opacity:1;" d="M 203.125 80.460938 C 205.894531 81.492188 214.800781 80.90625 221.238281 84.433594 C 227.953125 88.113281 234.253906 95.902344 234.253906 95.902344 L 233.582031 92.152344 C 221.503906 78.59375 210.523438 78.230469 202.46875 78.242188 C 199.429688 78.257812 198.132812 83.246094 198.132812 83.246094 C 198.132812 83.246094 201.339844 79.792969 203.125 80.460938 Z M 254.011719 140.585938 L 249.871094 142.007812 C 237.304688 143.082031 201.480469 114.761719 201.480469 114.761719 L 203.960938 112.222656 C 204.976562 113.6875 225.835938 129.285156 237.917969 134.929688 C 249.621094 140.40625 253.023438 136.390625 253.023438 136.390625 L 254.011719 140.585938 "/>
<path style=" stroke:none;fill-rule:evenodd;fill:rgb(98.81897%,90.979004%,73.728943%);fill-opacity:1;" d="M 284.386719 59.261719 C 284.09375 59.121094 283.550781 59.441406 283.480469 59.625 C 283.148438 60.417969 283.480469 61.851562 284.542969 61.785156 C 286.128906 61.6875 285.335938 59.707031 284.386719 59.261719 Z M 280.722656 53.839844 C 279.859375 54.367188 279.191406 53.183594 279.230469 52.488281 C 279.246094 52.167969 279.191406 51.734375 279.457031 51.566406 C 280.207031 51.109375 281.742188 53.226562 280.722656 53.839844 "/>
<path style=" stroke:none;fill-rule:evenodd;fill:rgb(23.139954%,26.269531%,37.249756%);fill-opacity:1;" d="M 278.410156 52.90625 C 278.019531 52.152344 277.976562 51.359375 278.757812 50.675781 C 279.328125 50.171875 279.832031 50.203125 280.25 50.496094 C 280.972656 51.023438 281.476562 52.238281 281.671875 52.949219 C 281.699219 53.03125 281.699219 53.101562 281.710938 53.171875 L 280.542969 55.21875 C 279.761719 54.605469 278.871094 53.785156 278.410156 52.90625 Z M 281.9375 55.234375 C 281.9375 55.539062 281.921875 55.859375 281.921875 56.179688 L 281.335938 55.804688 C 281.226562 55.722656 281.085938 55.625 280.945312 55.527344 L 281.851562 53.910156 C 281.90625 54.339844 281.9375 54.785156 281.9375 55.234375 Z M 282.546875 57.015625 L 283.707031 57.601562 L 283.675781 57.617188 C 284.414062 58.0625 285.085938 58.578125 285.574219 59.207031 C 286.046875 59.832031 286.367188 60.558594 286.421875 61.449219 C 286.449219 62.117188 286.214844 62.871094 285.78125 63.359375 C 285.363281 63.804688 284.765625 64.015625 284.054688 63.652344 C 283.648438 63.429688 283.34375 63.109375 283.121094 62.746094 C 282.773438 62.144531 282.605469 61.421875 282.507812 60.738281 C 282.355469 59.554688 282.464844 58.285156 282.546875 57.015625 Z M 290.964844 104.808594 C 289.125 100.835938 287.148438 96.53125 285.15625 92.25 C 284.179688 90.148438 283.203125 88.042969 282.226562 85.980469 C 281.226562 83.847656 280.234375 81.742188 279.289062 79.722656 C 278.019531 77.046875 276.820312 74.507812 275.734375 72.222656 C 275.039062 70.757812 274.398438 69.421875 273.8125 68.179688 C 273.867188 68.152344 273.910156 68.113281 273.953125 68.070312 L 280.738281 55.902344 C 280.847656 55.984375 280.988281 56.097656 281.097656 56.167969 L 281.894531 56.640625 C 281.824219 58.0625 281.683594 59.496094 281.878906 60.835938 C 282.003906 61.589844 282.199219 62.398438 282.605469 63.050781 C 282.898438 63.511719 283.273438 63.902344 283.789062 64.167969 C 284.597656 64.558594 285.28125 64.445312 285.796875 64.054688 C 286.5625 63.511719 286.992188 62.398438 286.910156 61.40625 C 286.828125 60.417969 286.464844 59.609375 285.921875 58.941406 C 285.390625 58.269531 284.679688 57.742188 283.871094 57.28125 L 283.84375 57.308594 L 282.578125 56.613281 C 282.605469 56.152344 282.617188 55.679688 282.617188 55.234375 C 282.617188 54.453125 282.546875 53.699219 282.367188 52.976562 L 287.175781 44.390625 C 287.214844 44.292969 287.1875 44.167969 287.089844 44.109375 C 287.007812 44.070312 286.882812 44.097656 286.828125 44.195312 L 282.1875 52.347656 C 281.894531 51.527344 281.351562 50.480469 280.625 49.964844 C 279.972656 49.519531 279.203125 49.433594 278.355469 50.214844 C 277.335938 51.148438 277.394531 52.179688 277.9375 53.15625 C 278.453125 54.105469 279.46875 54.980469 280.320312 55.625 L 273.519531 67.566406 C 271.597656 63.527344 270.382812 60.988281 270.382812 60.988281 C 270.355469 60.917969 270.273438 60.90625 270.203125 60.917969 C 270.480469 60.808594 270.675781 60.722656 270.675781 60.722656 C 270.730469 60.695312 270.789062 60.65625 270.816406 60.597656 L 284.207031 38.523438 C 284.261719 38.425781 284.234375 38.300781 284.152344 38.242188 C 284.054688 38.1875 283.929688 38.214844 283.871094 38.3125 L 270.34375 60.195312 C 269.632812 60.472656 264.824219 62.425781 258.484375 65.015625 C 256.003906 66.019531 253.300781 67.136719 250.515625 68.277344 C 245.539062 70.328125 240.285156 72.515625 235.605469 74.453125 C 227.257812 77.9375 220.707031 80.683594 220.707031 80.683594 C 220.625 80.710938 220.597656 80.808594 220.625 80.890625 C 220.652344 80.976562 220.765625 81.019531 220.847656 80.988281 C 220.847656 80.988281 227.4375 78.355469 235.8125 74.96875 C 240.523438 73.074219 245.789062 70.941406 250.777344 68.90625 C 253.566406 67.777344 256.269531 66.660156 258.734375 65.644531 C 264.378906 63.332031 268.738281 61.519531 270.148438 60.933594 C 270.089844 60.988281 270.050781 61.058594 270.078125 61.128906 C 270.078125 61.128906 271.246094 63.691406 273.113281 67.789062 C 271.792969 68.304688 267.375 70.019531 261.648438 72.265625 C 259.179688 73.226562 256.492188 74.285156 253.703125 75.386719 C 248.757812 77.339844 243.519531 79.429688 238.863281 81.28125 C 230.546875 84.597656 224.023438 87.234375 224.023438 87.234375 C 223.941406 87.261719 223.898438 87.359375 223.925781 87.441406 C 223.96875 87.527344 224.050781 87.566406 224.148438 87.539062 C 224.148438 87.539062 230.714844 85.019531 239.058594 81.796875 C 243.742188 79.984375 248.996094 77.953125 253.957031 76.015625 C 256.742188 74.925781 259.433594 73.867188 261.898438 72.90625 C 267.679688 70.632812 272.113281 68.863281 273.378906 68.363281 C 273.953125 69.617188 274.578125 70.96875 275.261719 72.445312 C 276.304688 74.746094 277.476562 77.296875 278.714844 79.984375 C 279.648438 82.019531 280.625 84.125 281.613281 86.273438 C 282.578125 88.335938 283.550781 90.441406 284.542969 92.542969 C 286.546875 96.824219 288.554688 101.101562 290.421875 105.058594 C 295.382812 115.570312 299.285156 123.820312 299.285156 123.820312 C 299.324219 123.917969 299.449219 123.960938 299.546875 123.917969 C 299.644531 123.863281 299.6875 123.75 299.632812 123.652344 C 299.632812 123.652344 295.828125 115.359375 290.964844 104.808594 "/>
<path style=" stroke:none;fill-rule:nonzero;fill:rgb(23.139954%,26.269531%,37.249756%);fill-opacity:1;" d="M 190.890625 220.199219 C 190.890625 220.199219 191.753906 221.105469 192.992188 222.5 C 194.234375 223.90625 195.78125 225.84375 197.339844 227.792969 C 198.832031 229.789062 200.324219 231.78125 201.367188 233.339844 C 202.414062 234.890625 203.082031 235.949219 203.082031 235.949219 C 203.082031 235.949219 202.21875 235.042969 200.976562 233.648438 C 199.738281 232.242188 198.175781 230.289062 196.628906 228.339844 C 195.140625 226.359375 193.648438 224.367188 192.589844 222.804688 C 191.542969 221.257812 190.890625 220.199219 190.890625 220.199219 "/>
</g>
</svg>
